<svg width="78" height="26" viewBox="0 0 78 26" fill="none" xmlns="http://www.w3.org/2000/svg">
<path d="M47.7681 12.8078C43.8194 13.8194 39.8657 14.8257 35.9219 15.8719C34.4804 16.2593 33.0415 16.7822 31.5607 17.1873L23.9407 19.1333C21.4063 19.7437 18.8671 20.3489 16.3304 21.001C14.076 21.5812 11.8292 22.3315 9.5701 23.0246C8.12379 23.4955 6.6849 24.0183 5.24348 24.4648C3.79799 24.8452 2.36195 25.1297 0.945745 25.3161C0.0615671 25.4192 0.173873 24.7411 0.936772 23.7293C1.98609 22.3684 3.34127 21.2225 4.82429 20.4422C10.736 18.2149 16.66 16.4045 22.5438 15.0271C26.0507 14.2885 29.7854 12.949 33.405 11.916C37.393 10.7982 41.3835 9.72734 45.3641 8.64611L52.7262 6.65028C56.4415 5.58523 60.1694 4.75446 63.8847 3.63038C66.7505 2.82266 69.5913 1.69396 72.4742 0.860051C73.1004 0.677563 73.7315 0.470726 74.3626 0.322919C76.6294 -0.0525371 77.4329 0.157558 77.7529 0.877051C77.8527 1.01959 77.9327 1.17773 77.9917 1.34897C78.1027 1.89317 77.0988 2.62234 75.4343 3.4388C70.3669 5.92876 65.0408 7.6605 59.6829 9.46196C55.7026 10.8383 51.7219 11.831 47.7315 12.9609L47.7681 12.8078Z" fill="#FF133E"/>
</svg>
