<svg width="42" height="42" viewBox="0 0 42 42" fill="none" xmlns="http://www.w3.org/2000/svg">
<g clip-path="url(#clip0_214_20)">
<path d="M0 21C0 11.1005 0 6.15075 3.07538 3.07538C6.15075 0 11.1005 0 21 0C30.8995 0 35.8492 0 38.9247 3.07538C42 6.15075 42 11.1005 42 21C42 30.8995 42 35.8492 38.9247 38.9247C35.8492 42 30.8995 42 21 42C11.1005 42 6.15075 42 3.07538 38.9247C0 35.8492 0 30.8995 0 21Z" fill="#404040"/>
<path d="M0 21C0 11.1005 0 6.15075 3.07538 3.07538C6.15075 0 11.1005 0 21 0C30.8995 0 35.8492 0 38.9247 3.07538C42 6.15075 42 11.1005 42 21C42 30.8995 42 35.8492 38.9247 38.9247C35.8492 42 30.8995 42 21 42C11.1005 42 6.15075 42 3.07538 38.9247C0 35.8492 0 30.8995 0 21Z" fill="url(#paint0_radial_214_20)" fill-opacity="0.31"/>
<path d="M0 21C0 11.1005 0 6.15075 3.07538 3.07538C6.15075 0 11.1005 0 21 0C30.8995 0 35.8492 0 38.9247 3.07538C42 6.15075 42 11.1005 42 21C42 30.8995 42 35.8492 38.9247 38.9247C35.8492 42 30.8995 42 21 42C11.1005 42 6.15075 42 3.07538 38.9247C0 35.8492 0 30.8995 0 21Z" fill="url(#paint1_radial_214_20)"/>
<path d="M0 21C0 11.1005 0 6.15075 3.07538 3.07538C6.15075 0 11.1005 0 21 0C30.8995 0 35.8492 0 38.9247 3.07538C42 6.15075 42 11.1005 42 21C42 30.8995 42 35.8492 38.9247 38.9247C35.8492 42 30.8995 42 21 42C11.1005 42 6.15075 42 3.07538 38.9247C0 35.8492 0 30.8995 0 21Z" fill="#404040"/>
<path d="M0 21C0 11.1005 0 6.15075 3.07538 3.07538C6.15075 0 11.1005 0 21 0C30.8995 0 35.8492 0 38.9247 3.07538C42 6.15075 42 11.1005 42 21C42 30.8995 42 35.8492 38.9247 38.9247C35.8492 42 30.8995 42 21 42C11.1005 42 6.15075 42 3.07538 38.9247C0 35.8492 0 30.8995 0 21Z" fill="url(#paint2_radial_214_20)" fill-opacity="0.31"/>
<path d="M0 21C0 11.1005 0 6.15075 3.07538 3.07538C6.15075 0 11.1005 0 21 0C30.8995 0 35.8492 0 38.9247 3.07538C42 6.15075 42 11.1005 42 21C42 30.8995 42 35.8492 38.9247 38.9247C35.8492 42 30.8995 42 21 42C11.1005 42 6.15075 42 3.07538 38.9247C0 35.8492 0 30.8995 0 21Z" fill="url(#paint3_radial_214_20)"/>
<mask id="mask0_214_20" style="mask-type:luminance" maskUnits="userSpaceOnUse" x="7" y="7" width="28" height="28">
<path d="M34.2631 7.73633H7.73682V34.2626H34.2631V7.73633Z" fill="white"/>
</mask>
<g mask="url(#mask0_214_20)">
<path fill-rule="evenodd" clip-rule="evenodd" d="M11.0526 22.1052C12.8839 22.1052 14.3684 20.6207 14.3684 18.7894C14.3684 16.9582 12.8839 15.4736 11.0526 15.4736C9.22135 15.4736 7.73682 16.9582 7.73682 18.7894C7.73682 20.6207 9.22135 22.1052 11.0526 22.1052ZM14.3684 33.1578C16.8101 33.1578 18.7894 31.1785 18.7894 28.7368C18.7894 26.2951 16.8101 24.3157 14.3684 24.3157C11.9267 24.3157 9.94734 26.2951 9.94734 28.7368C9.94734 31.1785 11.9267 33.1578 14.3684 33.1578Z" fill="white" fill-opacity="0.25"/>
<path fill-rule="evenodd" clip-rule="evenodd" d="M21.5204 27.0627C21.0464 28.8316 22.0961 30.6497 23.865 31.1237C25.6339 31.5977 27.4521 30.5479 27.9261 28.7791C28.4001 27.0102 27.3502 25.192 25.5814 24.7181C23.8125 24.2441 21.9943 25.2938 21.5204 27.0627ZM9.98622 27.4049C9.35426 29.7634 10.7538 32.1876 13.1123 32.8195C15.4708 33.4515 17.895 32.0519 18.5271 29.6934C19.159 27.3349 17.7593 24.9107 15.4008 24.2787C13.0423 23.6468 10.6181 25.0464 9.98622 27.4049Z" fill="white" fill-opacity="0.25"/>
<path fill-rule="evenodd" clip-rule="evenodd" d="M21.5204 27.0627C21.0464 28.8316 22.0961 30.6497 23.865 31.1237C25.6339 31.5977 27.4521 30.5479 27.9261 28.7791C28.4001 27.0102 27.3502 25.192 25.5814 24.7181C23.8125 24.2441 21.9943 25.2938 21.5204 27.0627ZM9.98622 27.4049C9.35426 29.7634 10.7538 32.1876 13.1123 32.8195C15.4708 33.4515 17.895 32.0519 18.5271 29.6934C19.159 27.3349 17.7593 24.9107 15.4008 24.2787C13.0423 23.6468 10.6181 25.0464 9.98622 27.4049Z" fill="white" fill-opacity="0.25"/>
<path fill-rule="evenodd" clip-rule="evenodd" d="M21.5204 27.0627C21.0464 28.8316 22.0961 30.6497 23.865 31.1237C25.6339 31.5977 27.4521 30.5479 27.9261 28.7791C28.4001 27.0102 27.3502 25.192 25.5814 24.7181C23.8125 24.2441 21.9943 25.2938 21.5204 27.0627ZM9.98622 27.4049C9.35426 29.7634 10.7538 32.1876 13.1123 32.8195C15.4708 33.4515 17.895 32.0519 18.5271 29.6934C19.159 27.3349 17.7593 24.9107 15.4008 24.2787C13.0423 23.6468 10.6181 25.0464 9.98622 27.4049Z" fill="white" fill-opacity="0.25"/>
<path fill-rule="evenodd" clip-rule="evenodd" d="M21.5204 27.0627C21.0464 28.8316 22.0961 30.6497 23.865 31.1237C25.6339 31.5977 27.4521 30.5479 27.9261 28.7791C28.4001 27.0102 27.3502 25.192 25.5814 24.7181C23.8125 24.2441 21.9943 25.2938 21.5204 27.0627ZM9.98622 27.4049C9.35426 29.7634 10.7538 32.1876 13.1123 32.8195C15.4708 33.4515 17.895 32.0519 18.5271 29.6934C19.159 27.3349 17.7593 24.9107 15.4008 24.2787C13.0423 23.6468 10.6181 25.0464 9.98622 27.4049Z" fill="white" fill-opacity="0.25"/>
<path fill-rule="evenodd" clip-rule="evenodd" d="M21.5204 27.0627C21.0464 28.8316 22.0961 30.6497 23.865 31.1237C25.6339 31.5977 27.4521 30.5479 27.9261 28.7791C28.4001 27.0102 27.3502 25.192 25.5814 24.7181C23.8125 24.2441 21.9943 25.2938 21.5204 27.0627ZM9.98622 27.4049C9.35426 29.7634 10.7538 32.1876 13.1123 32.8195C15.4708 33.4515 17.895 32.0519 18.5271 29.6934C19.159 27.3349 17.7593 24.9107 15.4008 24.2787C13.0423 23.6468 10.6181 25.0464 9.98622 27.4049Z" fill="white" fill-opacity="0.25"/>
<path fill-rule="evenodd" clip-rule="evenodd" d="M21.5204 27.0627C21.0464 28.8316 22.0961 30.6497 23.865 31.1237C25.6339 31.5977 27.4521 30.5479 27.9261 28.7791C28.4001 27.0102 27.3502 25.192 25.5814 24.7181C23.8125 24.2441 21.9943 25.2938 21.5204 27.0627ZM9.98622 27.4049C9.35426 29.7634 10.7538 32.1876 13.1123 32.8195C15.4708 33.4515 17.895 32.0519 18.5271 29.6934C19.159 27.3349 17.7593 24.9107 15.4008 24.2787C13.0423 23.6468 10.6181 25.0464 9.98622 27.4049Z" fill="white" fill-opacity="0.25"/>
<path d="M34.2631 13.2626C34.2631 16.3147 31.7889 18.789 28.7368 18.789C25.6847 18.789 23.2104 16.3147 23.2104 13.2626C23.2104 10.2105 25.6847 7.73633 28.7368 7.73633C31.7889 7.73633 34.2631 10.2105 34.2631 13.2626Z" fill="white"/>
</g>
</g>
<defs>
<radialGradient id="paint0_radial_214_20" cx="0" cy="0" r="1" gradientUnits="userSpaceOnUse" gradientTransform="translate(21) rotate(90) scale(42)">
<stop stop-color="white"/>
<stop offset="0.555689" stop-color="white" stop-opacity="0"/>
</radialGradient>
<radialGradient id="paint1_radial_214_20" cx="0" cy="0" r="1" gradientUnits="userSpaceOnUse" gradientTransform="translate(19 -69.5) rotate(90) scale(331.5)">
<stop offset="0.209652" stop-color="#0F7AFF"/>
<stop offset="0.604964" stop-opacity="0"/>
</radialGradient>
<radialGradient id="paint2_radial_214_20" cx="0" cy="0" r="1" gradientUnits="userSpaceOnUse" gradientTransform="translate(21) rotate(90) scale(42)">
<stop stop-color="white"/>
<stop offset="0.555689" stop-color="white" stop-opacity="0"/>
</radialGradient>
<radialGradient id="paint3_radial_214_20" cx="0" cy="0" r="1" gradientUnits="userSpaceOnUse" gradientTransform="translate(19 -69.5) rotate(90) scale(331.5)">
<stop offset="0.209652" stop-color="#0F7AFF"/>
<stop offset="0.604964" stop-opacity="0"/>
</radialGradient>
<clipPath id="clip0_214_20">
<rect width="42" height="42" fill="white"/>
</clipPath>
</defs>
</svg>
